# xmcd
#
# Track frame offsets:
#	182
#	12915
#	25902
#	40402
#	53450
#	68307
#	81662
#	95865
#	109740
#	122135
#	138377
#	151012
#	164500
#	178297
#	192030
#	205917
#	220807
#	236227
#	248505
#	263142
#
# Disc length: 3679 seconds
#
# Revision: 1
# Processed by: cddbd v1.5PL3 Copyright (c) Steve Scherf et al.
# Submitted via: audiograbber 1.83.01
#
DISCID=160e5d14
DTITLE=Big Bill Broonzy - In Chicago 1932-1937
DYEAR=1992
DGENRE=Blues
TTITLE0=Long Tall Mama
TTITLE1=You Know I Got A Reason
TTITLE2=Oh Babe (Don't Do Me That Way)
TTITLE3=Black Widow Spider
TTITLE4=Come Up To My House
TTITLE5=Get Away
TTITLE6=Little Bug
TTITLE7=Horny Frog
TTITLE8=Hattie Blues
TTITLE9=The Southern Blues
TTITLE10=I Want To Go Home
TTITLE11=At The Break Of Day
TTITLE12=Mountain Blues
TTITLE13=I'm Just A Bum
TTITLE14=The Sun Gonna Shine In My Door Someday
TTITLE15=Good Jelly
TTITLE16=Friendless Blues
TTITLE17=Mississippi River BLues
TTITLE18=I Can't Make You Satisfied
TTITLE19=You Do Me Any Old Way
EXTD=
EXTT0=
EXTT1=
EXTT2=
EXTT3=
EXTT4=
EXTT5=
EXTT6=
EXTT7=
EXTT8=
EXTT9=
EXTT10=
EXTT11=
EXTT12=
EXTT13=
EXTT14=
EXTT15=
EXTT16=
EXTT17=
EXTT18=
EXTT19=
PLAYORDER=
